<svg width="482" height="127" viewBox="0 0 482 127" fill="none" xmlns="http://www.w3.org/2000/svg">
<g clip-path="url(#clip0_218_692)">
<path d="M92.5799 121.13H4.37988V119.56L75.1299 8.14H18.3099C15.6855 8.18199 13.1829 9.25408 11.342 11.1249C9.50111 12.9957 8.46954 15.5153 8.46988 18.14V21.14H6.77988V0C9.96988 1.35 20.0099 3.07 27.3199 3.05H74.0299C80.8099 3.05 89.8999 1.92 91.8799 0.880005V2.34L19.9399 116.12H73.4599C86.0199 116.12 93.2799 106.88 96.4599 95.12H98.1499L92.5799 121.13Z" fill="#156B7C"/>
<path d="M209.47 108.84C212.88 116.34 219.11 119.44 224.27 119.44H225.67V121.13H187.75V119.46H189.23C193.58 119.46 198.09 115.63 195.63 108.89L184.86 80.2001H139.49L128.21 108.99C125.83 115.66 130.32 119.46 134.65 119.46H136.13V121.13H102.23V119.44H103.74C108.87 119.44 115.09 116.34 118.5 108.85L156.69 18.2201C156.69 18.2201 162.93 4.58012 162.93 0.870117H164.45L209.47 108.84ZM182.96 75.1501L162.66 21.0901L141.47 75.1501H182.96Z" fill="#156B7C"/>
<path d="M326.75 65.3702V108.98C326.666 111.784 325.494 114.446 323.482 116.4C321.469 118.355 318.775 119.449 315.97 119.45H313.84V121.13H350.69V119.44H348.56C345.732 119.441 343.018 118.331 341 116.351C338.982 114.37 337.822 111.677 337.77 108.85V15.4902C337.825 12.6641 338.985 9.97227 341.003 7.99236C343.02 6.01244 345.733 4.90229 348.56 4.90021H350.69V3.22021H313.81V4.90021H315.94C318.73 4.90078 321.412 5.98229 323.422 7.91769C325.431 9.8531 326.614 12.4919 326.72 15.2802V60.2802" fill="#156B7C"/>
<path d="M257.83 60.3202V15.3902C257.91 12.5817 259.082 9.91511 261.097 7.95656C263.111 5.99801 265.81 4.90165 268.62 4.90021H270.75V3.22021H233.93V4.90021H236.06C238.874 4.90187 241.577 6.00236 243.593 7.96732C245.608 9.93227 246.777 12.6064 246.85 15.4202V108.86C246.792 111.685 245.63 114.374 243.613 116.352C241.596 118.329 238.885 119.438 236.06 119.44H233.93V121.13H270.78V119.44H268.65C265.824 119.441 263.111 118.333 261.093 116.354C259.076 114.376 257.915 111.685 257.86 108.86V65.3702" fill="#156B7C"/>
<path d="M466.31 108.84C469.72 116.34 475.95 119.44 481.11 119.44H482.51V121.13H444.58V119.46H446.06C450.41 119.46 454.92 115.63 452.46 108.89L441.69 80.2001H396.31L385.03 108.99C382.65 115.66 387.14 119.46 391.47 119.46H392.95V121.13H359.05V119.44H360.56C365.69 119.44 371.91 116.34 375.32 108.85L413.51 18.2201C413.51 18.2201 419.75 4.58012 419.75 0.870117H421.31L466.31 108.84ZM439.8 75.1501L419.5 21.0901L398.31 75.1501H439.8Z" fill="#156B7C"/>
<path fill-rule="evenodd" clip-rule="evenodd" d="M350.31 67.5601H347.31C344.21 67.5601 341.13 67.5601 338.03 67.5601C337.503 67.5699 336.989 67.4007 336.57 67.0801L310.52 48.7001L298.83 40.4801C296.83 39.0601 294.83 37.6601 292.83 36.2101C292.644 36.0328 292.397 35.9339 292.14 35.9339C291.884 35.9339 291.636 36.0328 291.45 36.2101C281.63 43.1701 271.8 50.1135 261.96 57.0401L247.49 67.1601C247.23 67.3836 246.903 67.5138 246.56 67.5301H233.73C234.92 66.6801 235.9 65.9601 236.89 65.2601L263.17 46.7401C270.03 41.9135 276.884 37.0768 283.73 32.2301C286.35 30.3901 288.99 28.5701 291.61 26.7001C292.08 26.3601 292.35 26.5201 292.75 26.8001C296.424 29.4201 300.11 32.0301 303.81 34.6301L314.04 41.8101C322.04 47.4101 330.014 53.0301 337.96 58.6701L349.88 67.0601C350.02 67.1501 350.24 67.1901 350.31 67.5601Z" fill="#6EC9C6"/>
<path d="M291.07 67.5298H278.78V79.8198H291.07V67.5298Z" fill="#6EC9C6"/>
<path d="M306.07 67.5298H293.78V79.8198H306.07V67.5298Z" fill="#6EC9C6"/>
</g>
<defs>
<clipPath id="clip0_218_692">
<rect width="482" height="127" fill="white"/>
</clipPath>
</defs>
</svg>
